<svg width="68" height="39" viewBox="0 0 68 39" fill="none" xmlns="http://www.w3.org/2000/svg">
<path d="M47.44 30.876V8.484C47.44 7.98 48.652 7.728 51.076 7.728C53.524 7.728 54.748 7.98 54.748 8.484V26.124H60.292C60.724 26.124 61.024 26.688 61.192 27.816C61.264 28.368 61.3 28.932 61.3 29.508C61.3 30.084 61.264 30.672 61.192 31.272C61 32.424 60.688 33 60.256 33H49.168C48.64 33 48.22 32.784 47.908 32.352C47.596 31.92 47.44 31.428 47.44 30.876Z" fill="url(#paint0_linear_538_612)"/>
<path d="M27.396 8.268C27.396 8.148 27.912 8.04 28.944 7.944C30 7.824 30.864 7.764 31.536 7.764C34.2 7.764 35.592 8.112 35.712 8.808L38.808 24.648L41.724 8.808C41.868 8.112 43.356 7.764 46.188 7.764C46.884 7.764 47.76 7.812 48.816 7.908C49.872 8.004 50.4 8.112 50.4 8.232L44.028 32.064C43.932 32.448 43.224 32.7 41.904 32.82C39.864 33.036 38.004 33.084 36.324 32.964C34.668 32.82 33.792 32.58 33.696 32.244L27.396 8.268Z" fill="url(#paint1_linear_538_612)"/>
<path d="M28.5 17.808C28.956 17.808 29.184 18.648 29.184 20.328C29.184 20.832 29.124 21.432 29.004 22.128C28.908 22.8 28.716 23.136 28.428 23.136H23.856V26.736H30.48C30.888 26.736 31.164 27.264 31.308 28.32C31.38 28.776 31.416 29.268 31.416 29.796C31.416 30.3 31.344 30.96 31.2 31.776C31.056 32.592 30.816 33 30.48 33H18.168C17.256 33 16.8 32.628 16.8 31.884V8.736C16.8 8.112 17.076 7.8 17.628 7.8H30.516C31.02 7.8 31.272 8.868 31.272 11.004C31.272 13.116 31.02 14.172 30.516 14.172H23.856V17.808H28.5Z" fill="url(#paint2_linear_538_612)"/>
<path d="M8.676 32.496C8.676 32.88 7.536 33.072 5.256 33.072C2.952 33.072 1.8 32.892 1.8 32.532V9.06C1.8 8.22 2.244 7.8 3.132 7.8H10.008C16.32 7.8 19.476 10.26 19.476 15.18C19.476 16.668 19.188 18.024 18.612 19.248C18.036 20.448 17.22 21.408 16.164 22.128L20.7 29.688C20.508 30.264 19.884 30.924 18.828 31.668C17.388 32.7 16.2 33.216 15.264 33.216C14.328 33.216 13.632 32.88 13.176 32.208L9.792 24.324H8.676V32.496ZM8.676 14.172V19.572H8.856C11.136 19.572 12.276 18.624 12.276 16.728C12.276 15.864 12.048 15.228 11.592 14.82C11.16 14.388 10.44 14.172 9.432 14.172H8.676Z" fill="url(#paint3_linear_538_612)"/>
<defs>
<linearGradient id="paint0_linear_538_612" x1="36.2222" y1="20" x2="55.3704" y2="20" gradientUnits="userSpaceOnUse">
<stop stop-color="#252525"/>
<stop offset="1" stop-color="white"/>
</linearGradient>
<linearGradient id="paint1_linear_538_612" x1="13.5" y1="20" x2="44.9462" y2="18.6995" gradientUnits="userSpaceOnUse">
<stop stop-color="#252525"/>
<stop offset="1" stop-color="white"/>
</linearGradient>
<linearGradient id="paint2_linear_538_612" x1="4" y1="23.5" x2="30.6149" y2="21.819" gradientUnits="userSpaceOnUse">
<stop stop-color="#252525"/>
<stop offset="1" stop-color="white"/>
</linearGradient>
<linearGradient id="paint3_linear_538_612" x1="-26.5" y1="24.5" x2="10" y2="18" gradientUnits="userSpaceOnUse">
<stop stop-color="#252525"/>
<stop offset="1" stop-color="white"/>
</linearGradient>
</defs>
</svg>
